<svg xmlns="http://www.w3.org/2000/svg" width="134.57" height="96.467" viewBox="0 0 134.57 96.467"><g transform="translate(0 0)"><path d="M36.707,113.242V102.006H66.055a5.96,5.96,0,0,0,4.644-1.835,6.58,6.58,0,0,0,1.661-4.585V80.453h-.115a33.965,33.965,0,0,1-5.388,5.331,21.485,21.485,0,0,1-6.477,3.438,25.085,25.085,0,0,1-7.969,1.2,27.3,27.3,0,0,1-14.33-3.783,26.568,26.568,0,0,1-9.917-10.6A32.933,32.933,0,0,1,24.554,60.39a32.443,32.443,0,0,1,3.611-15.419A27.209,27.209,0,0,1,38.539,34.137Q45.3,30.125,55.05,30.124a31.95,31.95,0,0,1,16.107,3.9,27.107,27.107,0,0,1,10.6,10.949,34.28,34.28,0,0,1,3.783,16.452V96.159q0,7.909-4.585,12.5t-12.5,4.588ZM54.935,79.191a16.507,16.507,0,0,0,9.114-2.464,16.71,16.71,0,0,0,5.96-6.65,20.365,20.365,0,0,0,2.121-9.344,22.762,22.762,0,0,0-2.063-9.858,16.879,16.879,0,0,0-5.9-6.936,16.165,16.165,0,0,0-9.229-2.579,15.952,15.952,0,0,0-9.114,2.579,16.935,16.935,0,0,0-5.9,6.88,22.076,22.076,0,0,0-2.065,9.687,21.168,21.168,0,0,0,2.065,9.4,16.61,16.61,0,0,0,5.9,6.765A16.226,16.226,0,0,0,54.935,79.191Z" transform="translate(-24.554 -30.124)"/><path d="M54.4,89.155V47.309q0-7.8,4.414-12.209t12.209-4.414h14.1V41.921h-11.7a5.7,5.7,0,0,0-4.3,1.605,6.012,6.012,0,0,0-1.546,4.358V89.155Z" transform="translate(18.627 -29.311)"/></g><g transform="translate(86.306 1.314)"><path d="M59.828,125.814l32.1-95.153h16.166l-32.1,95.153Z" transform="translate(-59.828 -30.661)"/></g></svg>